<svg width="180" height="180" viewBox="0 0 180 180" fill="none" xmlns="http://www.w3.org/2000/svg">
<circle cx="131.947" cy="74.9699" r="47.9805" fill="#FFCB4C" fill-opacity="0.8"/>
<path fill-rule="evenodd" clip-rule="evenodd" d="M127.566 84.9034C132.478 82.3887 138.044 80.97 143.941 80.97C163.816 80.97 179.927 97.0812 179.927 116.955C179.927 136.83 163.816 152.941 143.941 152.941L143.942 152.941H24.029L23.9904 152.941C10.7409 152.941 0.00012207 142.2 0.00012207 128.951C0.00012207 115.701 10.7409 104.96 23.9904 104.96C28.4054 104.96 32.542 106.153 36.0953 108.234C36.0224 107.152 35.9854 106.061 35.9854 104.96C35.9854 78.4615 57.467 56.9799 83.9659 56.9799C103.305 56.9799 119.971 68.4208 127.566 84.9034Z" fill="url(#paint0_linear_5_343)"/>
<defs>
<linearGradient id="paint0_linear_5_343" x1="-11.2453" y1="56.9799" x2="219.661" y2="152.941" gradientUnits="userSpaceOnUse">
<stop stop-color="white"/>
<stop offset="1" stop-color="#E0E0E0"/>
</linearGradient>
</defs>
</svg>
